<?xml version="1.0" encoding="UTF-8"?>
<svg xmlns="http://www.w3.org/2000/svg" xmlns:xlink="http://www.w3.org/1999/xlink" width="16px" height="px" viewBox="0 0 16 16" version="1.1">
<defs>
<linearGradient id="linear0" gradientUnits="userSpaceOnUse" x1="16.33" y1="-2.748" x2="32.292999" y2="41.109001" gradientTransform="matrix(0.333333,0,0,0.333333,0,0)">
<stop offset="0" style="stop-color:rgb(16.470588%,64.313725%,95.686275%);stop-opacity:1;"/>
<stop offset="1" style="stop-color:rgb(0%,47.843137%,85.098039%);stop-opacity:1;"/>
</linearGradient>
<filter id="alpha" filterUnits="objectBoundingBox" x="0%" y="0%" width="100%" height="100%">
  <feColorMatrix type="matrix" in="SourceGraphic" values="0 0 0 0 1 0 0 0 0 1 0 0 0 0 1 0 0 0 1 0"/>
</filter>
<mask id="mask0">
  <g filter="url(#alpha)">
<rect x="0" y="0" width="16" height="16" style="fill:rgb(0%,0%,0%);fill-opacity:0.0509804;stroke:none;"/>
  </g>
</mask>
<clipPath id="clip1">
  <rect x="0" y="0" width="16" height="16"/>
</clipPath>
<g id="surface5" clip-path="url(#clip1)">
<path style=" stroke:none;fill-rule:nonzero;fill:rgb(0%,0%,0%);fill-opacity:1;" d="M 11.035156 4.332031 L 10.867188 7 L 10.632812 10.832031 L 8 11.699219 L 5.367188 10.832031 L 5.265625 9 L 6.601562 9 L 6.632812 9.832031 L 8 10.300781 L 9.367188 9.832031 L 9.464844 8.332031 L 6.535156 8.332031 L 6.464844 7 L 9.535156 7 L 9.632812 5.667969 L 5.035156 5.667969 L 4.933594 4.332031 L 11.035156 4.332031 M 11.386719 4 L 4.574219 4 L 4.601562 4.359375 L 4.699219 5.691406 L 4.722656 6 L 9.273438 6 L 9.222656 6.667969 L 6.117188 6.667969 L 6.132812 7.015625 L 6.199219 8.351562 L 6.214844 8.667969 L 4.914062 8.667969 L 4.933594 9.019531 L 5.035156 10.851562 L 5.046875 11.078125 L 5.261719 11.148438 L 7.894531 12.015625 L 8 12.050781 L 8.105469 12.015625 L 10.738281 11.148438 L 10.953125 11.078125 L 10.964844 10.855469 L 11.199219 7.019531 L 11.367188 4.355469 Z M 6.921875 8.667969 L 9.109375 8.667969 L 9.046875 9.589844 L 8 9.949219 L 6.957031 9.589844 L 6.933594 8.988281 Z M 6.921875 8.667969 "/>
</g>
<mask id="mask1">
  <g filter="url(#alpha)">
<rect x="0" y="0" width="16" height="16" style="fill:rgb(0%,0%,0%);fill-opacity:0.0705882;stroke:none;"/>
  </g>
</mask>
<clipPath id="clip2">
  <rect x="0" y="0" width="16" height="16"/>
</clipPath>
<g id="surface8" clip-path="url(#clip2)">
<path style=" stroke:none;fill-rule:nonzero;fill:rgb(0%,0%,0%);fill-opacity:1;" d="M 11.035156 4.332031 L 10.867188 7 L 10.632812 10.832031 L 8 11.699219 L 5.367188 10.832031 L 5.265625 9 L 6.601562 9 L 6.632812 9.832031 L 8 10.300781 L 9.367188 9.832031 L 9.464844 8.332031 L 6.535156 8.332031 L 6.464844 7 L 9.535156 7 L 9.632812 5.667969 L 5.035156 5.667969 L 4.933594 4.332031 L 11.035156 4.332031 M 11.210938 4.167969 L 4.753906 4.167969 L 4.765625 4.34375 L 4.867188 5.679688 L 4.878906 5.832031 L 9.453125 5.832031 L 9.378906 6.832031 L 6.292969 6.832031 L 6.300781 7.007812 L 6.367188 8.339844 L 6.375 8.5 L 9.289062 8.5 L 9.207031 9.710938 L 8 10.125 L 6.796875 9.710938 L 6.765625 8.992188 L 6.761719 8.832031 L 5.089844 8.832031 L 5.101562 9.007812 L 5.199219 10.84375 L 5.207031 10.957031 L 5.316406 10.992188 L 7.949219 11.859375 L 8 11.875 L 8.050781 11.859375 L 10.683594 10.992188 L 10.792969 10.957031 L 10.800781 10.84375 L 11.03125 7.011719 L 11.199219 4.34375 Z M 11.210938 4.167969 "/>
</g>
</defs>
<g id="surface1">
<path style=" stroke:none;fill-rule:nonzero;fill:url(#linear0);" d="M 2.398438 2.390625 L 3.273438 12.316406 C 3.308594 12.726562 3.597656 13.074219 3.996094 13.1875 L 7.542969 14.203125 C 7.839844 14.289062 8.160156 14.289062 8.457031 14.203125 L 12.003906 13.1875 C 12.402344 13.074219 12.691406 12.726562 12.726562 12.316406 L 13.601562 2.390625 C 13.636719 2.003906 13.328125 1.667969 12.9375 1.667969 L 3.0625 1.667969 C 2.671875 1.667969 2.363281 2.003906 2.398438 2.390625 Z M 2.398438 2.390625 "/>
<path style=" stroke:none;fill-rule:nonzero;fill:rgb(20.784314%,75.686276%,94.509804%);fill-opacity:1;" d="M 8 2.667969 L 8 13.300781 L 11.292969 12.359375 C 11.558594 12.285156 11.75 12.050781 11.773438 11.777344 L 12.535156 3.027344 C 12.550781 2.835938 12.398438 2.667969 12.203125 2.667969 Z M 8 2.667969 "/>
<path style=" stroke:none;fill-rule:nonzero;fill:rgb(100%,100%,100%);fill-opacity:1;" d="M 11.035156 4.332031 L 8 4.332031 L 8 5.667969 L 9.632812 5.667969 L 9.535156 7 L 8 7 L 8 8.332031 L 9.464844 8.332031 L 9.367188 9.832031 L 8 10.300781 L 8 11.699219 L 10.632812 10.832031 L 10.867188 7 Z M 11.035156 4.332031 "/>
<path style=" stroke:none;fill-rule:nonzero;fill:rgb(83.92157%,87.843138%,91.37255%);fill-opacity:1;" d="M 8 4.332031 L 8 5.667969 L 5.035156 5.667969 L 4.933594 4.332031 Z M 6.464844 7 L 6.535156 8.332031 L 8 8.332031 L 8 7 Z M 6.601562 9 L 5.265625 9 L 5.367188 10.832031 L 8 11.699219 L 8 10.300781 L 6.632812 9.832031 Z M 6.601562 9 "/>
<use xlink:href="#surface5" mask="url(#mask0)"/>
<use xlink:href="#surface8" mask="url(#mask1)"/>
</g>
</svg>
