<?xml version="1.0" encoding="UTF-8"?>
<svg xmlns="http://www.w3.org/2000/svg" xmlns:xlink="http://www.w3.org/1999/xlink" width="16px" height="16px" viewBox="0 0 16 16" version="1.1">
<g id="surface1">
<path style=" stroke:none;fill-rule:nonzero;fill:rgb(10.196079%,10.196079%,10.196079%);fill-opacity:1;" d="M 4.480469 1.277344 C 2.714844 1.277344 1.28125 2.714844 1.28125 4.476562 L 1.28125 11.515625 C 1.28125 13.28125 2.714844 14.71875 4.480469 14.71875 L 11.519531 14.71875 C 13.285156 14.71875 14.71875 13.28125 14.71875 11.515625 L 14.71875 4.476562 C 14.71875 2.714844 13.285156 1.277344 11.519531 1.277344 Z M 5.761719 3.851562 C 5.960938 3.859375 6.148438 3.972656 6.257812 4.144531 C 6.386719 4.34375 6.582031 4.652344 6.839844 5.050781 C 7.070312 5.417969 7.089844 5.886719 6.878906 6.269531 L 6.410156 6.9375 C 6.285156 7.117188 6.257812 7.347656 6.34375 7.550781 C 6.476562 7.867188 6.734375 8.355469 7.1875 8.8125 C 7.644531 9.265625 8.132812 9.523438 8.449219 9.65625 C 8.652344 9.742188 8.882812 9.714844 9.0625 9.589844 L 9.730469 9.121094 C 10.113281 8.910156 10.582031 8.929688 10.949219 9.160156 C 11.347656 9.417969 11.65625 9.613281 11.855469 9.742188 C 12.027344 9.851562 12.140625 10.039062 12.148438 10.238281 C 12.199219 11.378906 11.316406 11.839844 11.058594 11.839844 C 10.878906 11.839844 8.742188 12.082031 6.328125 9.671875 C 3.917969 7.257812 4.160156 5.121094 4.160156 4.941406 C 4.160156 4.683594 4.621094 3.800781 5.761719 3.851562 Z M 5.761719 3.851562 "/>
</g>
</svg>
